<svg width="18" height="22" viewBox="0 0 18 22" fill="none" xmlns="http://www.w3.org/2000/svg">
<path d="M9 10V7M9 7C10.1046 7 11 6.10457 11 5C11 3.89543 9.5 1.5 9 1.5C8.5 1.5 7 3.89543 7 5C7 6.10457 7.89543 7 9 7ZM17 15L16.5678 15.6441C15.8349 16.7364 14.2147 16.695 13.5384 15.5667L13.4992 15.5013C12.8203 14.3686 11.179 14.3683 10.4996 15.5007V15.5007C9.82036 16.6327 8.17945 16.6324 7.5002 15.5003V15.5003C6.82077 14.3679 5.17943 14.3676 4.5 15.5L4.46005 15.5666C3.78176 16.6971 2.15716 16.7357 1.42585 15.6388L1 15M17 21V14C17 11.7909 15.2091 10 13 10H5C2.79086 10 1 11.7909 1 14V21H17Z" stroke="#F2FEFF" stroke-width="2" stroke-linecap="round" stroke-linejoin="round"/>
</svg>
